<?xml version="1.0" encoding="UTF-8" standalone="no"?><!DOCTYPE svg PUBLIC "-//W3C//DTD SVG 1.1//EN" "http://www.w3.org/Graphics/SVG/1.1/DTD/svg11.dtd"><svg width="100%" height="100%" viewBox="0 0 24 24" version="1.1" xmlns="http://www.w3.org/2000/svg" xmlns:xlink="http://www.w3.org/1999/xlink" xml:space="preserve" xmlns:serif="http://www.serif.com/" style="fill-rule:evenodd;clip-rule:evenodd;stroke-linejoin:round;stroke-miterlimit:1.41421;"><rect id="aftereffects" x="0" y="0" width="24" height="24" style="fill:none;"/><clipPath id="_clip1"><rect id="aftereffects1" serif:id="aftereffects" x="0" y="0" width="24" height="24"/></clipPath><g clip-path="url(#_clip1)"><rect x="0" y="0" width="24" height="24" style="fill:#1f0141;"/><path d="M24,24l-24,0l0,-24l24,0l0,24Zm-22,-22l0,20l20,0l0,-20l-20,0Z" style="fill:#cc90ff;"/><path d="M11.07,16.312c-0.112,-0.328 -0.228,-0.652 -0.348,-0.972c-0.12,-0.32 -0.236,-0.648 -0.348,-0.984l-3.504,0c-0.112,0.336 -0.226,0.666 -0.342,0.99c-0.116,0.324 -0.23,0.646 -0.342,0.966l-1.572,0c0.312,-0.888 0.608,-1.708 0.888,-2.46c0.28,-0.752 0.554,-1.464 0.822,-2.136c0.268,-0.672 0.534,-1.312 0.798,-1.92c0.264,-0.608 0.536,-1.208 0.816,-1.8l1.428,0c0.28,0.592 0.552,1.192 0.816,1.8c0.264,0.608 0.53,1.248 0.798,1.92c0.268,0.672 0.544,1.384 0.828,2.136c0.284,0.752 0.582,1.572 0.894,2.46l-1.632,0Zm-2.448,-6.708c-0.184,0.424 -0.394,0.94 -0.63,1.548c-0.236,0.608 -0.482,1.268 -0.738,1.98l2.736,0c-0.256,-0.712 -0.504,-1.376 -0.744,-1.992c-0.24,-0.616 -0.448,-1.128 -0.624,-1.536Z" style="fill:#cc90ff;fill-rule:nonzero;"/><path d="M13.17,13.204c0,-0.552 0.082,-1.036 0.246,-1.452c0.164,-0.416 0.382,-0.762 0.654,-1.038c0.272,-0.276 0.584,-0.484 0.936,-0.624c0.352,-0.14 0.712,-0.21 1.08,-0.21c0.864,0 1.538,0.268 2.022,0.804c0.484,0.536 0.726,1.336 0.726,2.4c0,0.08 -0.002,0.17 -0.006,0.27c-0.004,0.1 -0.01,0.19 -0.018,0.27l-4.14,0c0.04,0.504 0.218,0.894 0.534,1.17c0.316,0.276 0.774,0.414 1.374,0.414c0.352,0 0.674,-0.032 0.966,-0.096c0.292,-0.064 0.522,-0.132 0.69,-0.204l0.192,1.188c-0.08,0.04 -0.19,0.082 -0.33,0.126c-0.14,0.044 -0.3,0.084 -0.48,0.12c-0.18,0.036 -0.374,0.066 -0.582,0.09c-0.208,0.024 -0.42,0.036 -0.636,0.036c-0.552,0 -1.032,-0.082 -1.44,-0.246c-0.408,-0.164 -0.744,-0.392 -1.008,-0.684c-0.264,-0.292 -0.46,-0.636 -0.588,-1.032c-0.128,-0.396 -0.192,-0.83 -0.192,-1.302Zm4.212,-0.648c0,-0.2 -0.028,-0.39 -0.084,-0.57c-0.056,-0.18 -0.138,-0.336 -0.246,-0.468c-0.108,-0.132 -0.24,-0.236 -0.396,-0.312c-0.156,-0.076 -0.342,-0.114 -0.558,-0.114c-0.224,0 -0.42,0.042 -0.588,0.126c-0.168,0.084 -0.31,0.194 -0.426,0.33c-0.116,0.136 -0.206,0.292 -0.27,0.468c-0.064,0.176 -0.108,0.356 -0.132,0.54l2.7,0Z" style="fill:#cc90ff;fill-rule:nonzero;"/></g></svg>