<?xml version="1.0" encoding="UTF-8" standalone="no"?><!DOCTYPE svg PUBLIC "-//W3C//DTD SVG 1.1//EN" "http://www.w3.org/Graphics/SVG/1.1/DTD/svg11.dtd"><svg width="100%" height="100%" viewBox="0 0 24 24" version="1.1" xmlns="http://www.w3.org/2000/svg" xmlns:xlink="http://www.w3.org/1999/xlink" xml:space="preserve" xmlns:serif="http://www.serif.com/" style="fill-rule:evenodd;clip-rule:evenodd;stroke-linejoin:round;stroke-miterlimit:1.41421;"><rect id="animate" x="0" y="0" width="24" height="24" style="fill:none;"/><rect x="0" y="0" width="24" height="24" style="fill:#250600;"/><path d="M24,24l-24,0l0,-24l24,0l0,24Zm-22,-22l0,20l20,0l0,-20l-20,0Z" style="fill:#f9401a;"/><path d="M10.902,16.312c-0.112,-0.328 -0.228,-0.652 -0.348,-0.972c-0.12,-0.32 -0.236,-0.648 -0.348,-0.984l-3.504,0c-0.112,0.336 -0.226,0.666 -0.342,0.99c-0.116,0.324 -0.23,0.646 -0.342,0.966l-1.572,0c0.312,-0.888 0.608,-1.708 0.888,-2.46c0.28,-0.752 0.554,-1.464 0.822,-2.136c0.268,-0.672 0.534,-1.312 0.798,-1.92c0.264,-0.608 0.536,-1.208 0.816,-1.8l1.428,0c0.28,0.592 0.552,1.192 0.816,1.8c0.264,0.608 0.53,1.248 0.798,1.92c0.268,0.672 0.544,1.384 0.828,2.136c0.284,0.752 0.582,1.572 0.894,2.46l-1.632,0Zm-2.448,-6.708c-0.184,0.424 -0.394,0.94 -0.63,1.548c-0.236,0.608 -0.482,1.268 -0.738,1.98l2.736,0c-0.256,-0.712 -0.504,-1.376 -0.744,-1.992c-0.24,-0.616 -0.448,-1.128 -0.624,-1.536Z" style="fill:#f9401a;fill-rule:nonzero;"/><path d="M13.518,10.24c0.28,-0.08 0.644,-0.156 1.092,-0.228c0.448,-0.072 0.944,-0.108 1.488,-0.108c0.512,0 0.94,0.07 1.284,0.21c0.344,0.14 0.618,0.336 0.822,0.588c0.204,0.252 0.348,0.556 0.432,0.912c0.084,0.356 0.126,0.746 0.126,1.17l0,3.528l-1.452,0l0,-3.3c0,-0.336 -0.022,-0.622 -0.066,-0.858c-0.044,-0.236 -0.116,-0.428 -0.216,-0.576c-0.1,-0.148 -0.236,-0.256 -0.408,-0.324c-0.172,-0.068 -0.382,-0.102 -0.63,-0.102c-0.184,0 -0.376,0.012 -0.576,0.036c-0.2,0.024 -0.348,0.044 -0.444,0.06l0,5.064l-1.452,0l0,-6.072Z" style="fill:#f9401a;fill-rule:nonzero;"/></svg>