<?xml version="1.0" encoding="UTF-8" standalone="no"?><!DOCTYPE svg PUBLIC "-//W3C//DTD SVG 1.1//EN" "http://www.w3.org/Graphics/SVG/1.1/DTD/svg11.dtd"><svg width="100%" height="100%" viewBox="0 0 24 24" version="1.1" xmlns="http://www.w3.org/2000/svg" xmlns:xlink="http://www.w3.org/1999/xlink" xml:space="preserve" xmlns:serif="http://www.serif.com/" style="fill-rule:evenodd;clip-rule:evenodd;stroke-linejoin:round;stroke-miterlimit:1.41421;"><rect id="dreamweaver" x="0" y="0" width="24" height="24" style="fill:none;"/><rect x="0" y="0" width="24" height="24" style="fill:#0b2600;"/><path d="M24,24l-24,0l0,-24l24,0l0,24Zm-22,-22l0,20l20,0l0,-20l-20,0Z" style="fill:#58ff00;"/><path d="M5.472,15.064c0.088,0.008 0.204,0.014 0.348,0.018c0.144,0.004 0.34,0.006 0.588,0.006c1.016,0 1.774,-0.258 2.274,-0.774c0.5,-0.516 0.75,-1.238 0.75,-2.166c0,-0.944 -0.244,-1.668 -0.732,-2.172c-0.488,-0.504 -1.244,-0.756 -2.268,-0.756c-0.448,0 -0.768,0.012 -0.96,0.036l0,5.808Zm5.544,-2.916c0,0.72 -0.112,1.346 -0.336,1.878c-0.224,0.532 -0.542,0.976 -0.954,1.332c-0.412,0.356 -0.908,0.62 -1.488,0.792c-0.58,0.172 -1.222,0.258 -1.926,0.258c-0.336,0 -0.716,-0.014 -1.14,-0.042c-0.424,-0.028 -0.828,-0.086 -1.212,-0.174l0,-8.076c0.384,-0.088 0.792,-0.144 1.224,-0.168c0.432,-0.024 0.816,-0.036 1.152,-0.036c0.696,0 1.332,0.082 1.908,0.246c0.576,0.164 1.07,0.42 1.482,0.768c0.412,0.348 0.73,0.788 0.954,1.32c0.224,0.532 0.336,1.166 0.336,1.902Z" style="fill:#58ff00;fill-rule:nonzero;"/><path d="M16.344,12.364c-0.184,0.704 -0.382,1.39 -0.594,2.058c-0.212,0.668 -0.422,1.298 -0.63,1.89l-1.188,0c-0.16,-0.368 -0.328,-0.788 -0.504,-1.26c-0.176,-0.472 -0.352,-0.976 -0.528,-1.512c-0.176,-0.536 -0.352,-1.1 -0.528,-1.692c-0.176,-0.592 -0.348,-1.196 -0.516,-1.812l1.536,0c0.072,0.336 0.156,0.698 0.252,1.086c0.096,0.388 0.196,0.784 0.3,1.188c0.104,0.404 0.212,0.798 0.324,1.182c0.112,0.384 0.224,0.736 0.336,1.056c0.12,-0.368 0.238,-0.748 0.354,-1.14c0.116,-0.392 0.226,-0.784 0.33,-1.176c0.104,-0.392 0.202,-0.774 0.294,-1.146c0.092,-0.372 0.174,-0.722 0.246,-1.05l1.116,0c0.072,0.328 0.152,0.678 0.24,1.05c0.088,0.372 0.182,0.754 0.282,1.146c0.1,0.392 0.208,0.784 0.324,1.176c0.116,0.392 0.234,0.772 0.354,1.14c0.104,-0.32 0.212,-0.672 0.324,-1.056c0.112,-0.384 0.222,-0.778 0.33,-1.182c0.108,-0.404 0.21,-0.8 0.306,-1.188c0.096,-0.388 0.18,-0.75 0.252,-1.086l1.5,0c-0.168,0.616 -0.34,1.22 -0.516,1.812c-0.176,0.592 -0.352,1.156 -0.528,1.692c-0.176,0.536 -0.352,1.04 -0.528,1.512c-0.176,0.472 -0.348,0.892 -0.516,1.26l-1.176,0c-0.208,-0.592 -0.422,-1.222 -0.642,-1.89c-0.22,-0.668 -0.422,-1.354 -0.606,-2.058Z" style="fill:#58ff00;fill-rule:nonzero;"/></svg>