<?xml version="1.0" encoding="UTF-8" standalone="no"?><!DOCTYPE svg PUBLIC "-//W3C//DTD SVG 1.1//EN" "http://www.w3.org/Graphics/SVG/1.1/DTD/svg11.dtd"><svg width="100%" height="100%" viewBox="0 0 24 24" version="1.1" xmlns="http://www.w3.org/2000/svg" xmlns:xlink="http://www.w3.org/1999/xlink" xml:space="preserve" xmlns:serif="http://www.serif.com/" style="fill-rule:evenodd;clip-rule:evenodd;stroke-linejoin:round;stroke-miterlimit:1.41421;"><rect id="dropbox" x="0" y="0" width="24" height="24" style="fill:none;"/><path d="M17,19.5l2,-1.286l0,1.286l-7,4l-7,-4l0,-1.286l2,1.286l5,-4.5l5,4.5Z" style="fill:#007ee5;"/><path d="M19,9.5l5,4.5l-7,4.5l-5,-4.5l7,-4.5Z" style="fill:#007ee5;"/><path d="M5,9.5l7,4.5l-5,4.5l-7,-4.5l5,-4.5Z" style="fill:#007ee5;"/><path d="M17,0.5l7,4.5l-5,4.5l-7,-4.5l5,-4.5Z" style="fill:#007ee5;"/><path d="M7,0.5l5,4.5l-7,4.5l-5,-4.5l7,-4.5Z" style="fill:#007ee5;"/></svg>