<?xml version="1.0" encoding="UTF-8" standalone="no"?><!DOCTYPE svg PUBLIC "-//W3C//DTD SVG 1.1//EN" "http://www.w3.org/Graphics/SVG/1.1/DTD/svg11.dtd"><svg width="100%" height="100%" viewBox="0 0 24 24" version="1.1" xmlns="http://www.w3.org/2000/svg" xmlns:xlink="http://www.w3.org/1999/xlink" xml:space="preserve" xmlns:serif="http://www.serif.com/" style="fill-rule:evenodd;clip-rule:evenodd;stroke-linejoin:round;stroke-miterlimit:1.41421;"><rect id="etsy" x="0" y="0" width="24" height="24" style="fill:none;"/><path d="M8.592,2.446c0,-0.326 0.033,-0.522 0.587,-0.522l7.468,0c1.304,0 2.021,1.109 2.543,3.196l0.424,1.663l1.272,0c0.228,-4.729 0.424,-6.783 0.424,-6.783c0,0 -3.196,0.359 -5.087,0.359l-9.555,0l-5.119,-0.163l0,1.369l1.728,0.326c1.207,0.229 1.5,0.489 1.598,1.598c0,0 0.098,3.261 0.098,8.641c0,5.381 -0.098,8.609 -0.098,8.609c0,0.978 -0.391,1.337 -1.598,1.565l-1.728,0.326l0,1.37l5.119,-0.163l8.544,0c1.924,0 6.391,0.163 6.391,0.163c0.098,-1.174 0.75,-6.489 0.848,-7.076l-1.206,0l-1.272,2.902c-1.011,2.283 -2.478,2.446 -4.109,2.446l-4.859,0c-1.63,0 -2.413,-0.652 -2.413,-2.055l0,-7.434c0,0 3.62,0 4.794,0.097c0.913,0.066 1.467,0.327 1.761,1.598l0.391,1.696l1.402,0l-0.098,-4.272l0.196,-4.304l-1.402,0l-0.457,1.891c-0.293,1.239 -0.489,1.468 -1.761,1.598c-1.663,0.163 -4.826,0.13 -4.826,0.13l0,-8.771Z" style="fill:#f97f2e;fill-rule:nonzero;"/></svg>