<?xml version="1.0" encoding="UTF-8" standalone="no"?><!DOCTYPE svg PUBLIC "-//W3C//DTD SVG 1.1//EN" "http://www.w3.org/Graphics/SVG/1.1/DTD/svg11.dtd"><svg width="100%" height="100%" viewBox="0 0 24 24" version="1.1" xmlns="http://www.w3.org/2000/svg" xmlns:xlink="http://www.w3.org/1999/xlink" xml:space="preserve" xmlns:serif="http://www.serif.com/" style="fill-rule:evenodd;clip-rule:evenodd;stroke-linejoin:round;stroke-miterlimit:1.41421;"><rect id="google" x="0" y="0" width="24" height="24" style="fill:none;"/><path d="M22,13l0,2l-2,0l0,-2l-2,0l0,-2l2,0l0,-2l2,0l0,2l2,0l0,2l-2,0Z" style="fill:#dc4e41;"/><path d="M12.533,6.44c-1.379,-1.249 -3.173,-1.94 -5.033,-1.94c-4.139,0 -7.5,3.361 -7.5,7.5c0,4.139 3.361,7.5 7.5,7.5c4.142,0 7.5,-3.358 7.5,-7.5l-2.55,0c0,2.734 -2.216,4.95 -4.95,4.95c-2.732,0 -4.95,-2.218 -4.95,-4.95c0,-2.732 2.218,-4.95 4.95,-4.95c1.228,0 2.412,0.456 3.322,1.28l1.711,-1.89Z" style="fill:#dc4e41;"/><path d="M15,11l-7,0l0,2.5l5.5,0l1.5,-1.5l0,-1Z" style="fill:#dc4e41;"/></svg>