<?xml version="1.0" encoding="UTF-8" standalone="no"?><!DOCTYPE svg PUBLIC "-//W3C//DTD SVG 1.1//EN" "http://www.w3.org/Graphics/SVG/1.1/DTD/svg11.dtd"><svg width="100%" height="100%" viewBox="0 0 24 24" version="1.1" xmlns="http://www.w3.org/2000/svg" xmlns:xlink="http://www.w3.org/1999/xlink" xml:space="preserve" xmlns:serif="http://www.serif.com/" style="fill-rule:evenodd;clip-rule:evenodd;stroke-linejoin:round;stroke-miterlimit:1.41421;"><rect id="illustrator" x="0" y="0" width="24" height="24" style="fill:none;"/><rect x="0" y="0" width="24" height="24" style="fill:#251300;"/><path d="M24,24l-24,0l0,-24l24,0l0,24Zm-22,-22l0,20l20,0l0,-20l-20,0Z" style="fill:#f97d00;"/><path d="M12.756,16.312c-0.112,-0.328 -0.228,-0.652 -0.348,-0.972c-0.12,-0.32 -0.236,-0.648 -0.348,-0.984l-3.504,0c-0.112,0.336 -0.226,0.666 -0.342,0.99c-0.116,0.324 -0.23,0.646 -0.342,0.966l-1.572,0c0.312,-0.888 0.608,-1.708 0.888,-2.46c0.28,-0.752 0.554,-1.464 0.822,-2.136c0.268,-0.672 0.534,-1.312 0.798,-1.92c0.264,-0.608 0.536,-1.208 0.816,-1.8l1.428,0c0.28,0.592 0.552,1.192 0.816,1.8c0.264,0.608 0.53,1.248 0.798,1.92c0.268,0.672 0.544,1.384 0.828,2.136c0.284,0.752 0.582,1.572 0.894,2.46l-1.632,0Zm-2.448,-6.708c-0.184,0.424 -0.394,0.94 -0.63,1.548c-0.236,0.608 -0.482,1.268 -0.738,1.98l2.736,0c-0.256,-0.712 -0.504,-1.376 -0.744,-1.992c-0.24,-0.616 -0.448,-1.128 -0.624,-1.536Z" style="fill:#f97d00;fill-rule:nonzero;"/><path d="M16.836,16.312l-1.452,0l0,-6.276l1.452,0l0,6.276Zm0.156,-8.112c0,0.272 -0.088,0.488 -0.264,0.648c-0.176,0.16 -0.384,0.24 -0.624,0.24c-0.248,0 -0.46,-0.08 -0.636,-0.24c-0.176,-0.16 -0.264,-0.376 -0.264,-0.648c0,-0.28 0.088,-0.5 0.264,-0.66c0.176,-0.16 0.388,-0.24 0.636,-0.24c0.24,0 0.448,0.08 0.624,0.24c0.176,0.16 0.264,0.38 0.264,0.66Z" style="fill:#f97d00;fill-rule:nonzero;"/></svg>