<?xml version="1.0" encoding="UTF-8" standalone="no"?><!DOCTYPE svg PUBLIC "-//W3C//DTD SVG 1.1//EN" "http://www.w3.org/Graphics/SVG/1.1/DTD/svg11.dtd"><svg width="100%" height="100%" viewBox="0 0 24 24" version="1.1" xmlns="http://www.w3.org/2000/svg" xmlns:xlink="http://www.w3.org/1999/xlink" xml:space="preserve" xmlns:serif="http://www.serif.com/" style="fill-rule:evenodd;clip-rule:evenodd;stroke-linejoin:round;stroke-miterlimit:1.41421;"><rect id="instagram" x="0" y="0" width="24" height="24" style="fill:none;"/><clipPath id="_clip1"><rect x="0" y="0" width="24" height="24"/></clipPath><g clip-path="url(#_clip1)"><path d="M18.5,0c3.045,0.009 5.5,2.47 5.5,5.5l0,13c0,3.036 -2.464,5.5 -5.5,5.5l-13,0c-3.036,0 -5.5,-2.464 -5.5,-5.5l0,-13c0,-3.03 2.455,-5.491 5.5,-5.5l13,0Zm0,2l-13,0c-1.942,0.01 -3.5,1.575 -3.5,3.5l0,13c0,1.932 1.568,3.5 3.5,3.5l13,0c1.932,0 3.5,-1.568 3.5,-3.5l0,-13c0,-1.925 -1.558,-3.49 -3.5,-3.5Z" style="fill:#262626;"/><path d="M12,6c3.311,0 6,2.689 6,6c0,3.311 -2.689,6 -6,6c-3.311,0 -6,-2.689 -6,-6c0,-3.311 2.689,-6 6,-6Zm0,2c2.208,0 4,1.792 4,4c0,2.208 -1.792,4 -4,4c-2.208,0 -4,-1.792 -4,-4c0,-2.208 1.792,-4 4,-4Z" style="fill:#262626;"/><circle cx="18.5" cy="5.5" r="1.5" style="fill:#262626;"/></g></svg>