<?xml version="1.0" encoding="UTF-8" standalone="no"?><!DOCTYPE svg PUBLIC "-//W3C//DTD SVG 1.1//EN" "http://www.w3.org/Graphics/SVG/1.1/DTD/svg11.dtd"><svg width="100%" height="100%" viewBox="0 0 24 24" version="1.1" xmlns="http://www.w3.org/2000/svg" xmlns:xlink="http://www.w3.org/1999/xlink" xml:space="preserve" xmlns:serif="http://www.serif.com/" style="fill-rule:evenodd;clip-rule:evenodd;stroke-linejoin:round;stroke-miterlimit:1.41421;"><rect id="indesign" x="0" y="0" width="24" height="24" style="fill:none;"/><rect x="0" y="0" width="24" height="24" style="fill:#25000f;"/><path d="M24,24l-24,0l0,-24l24,0l0,24Zm-22,-22l0,20l20,0l0,-20l-20,0Z" style="fill:#fa4094;"/><rect x="7.668" y="7.996" width="1.512" height="8.316" style="fill:#fa4094;fill-rule:nonzero;"/><path d="M12.24,13.156c0,0.64 0.152,1.142 0.456,1.506c0.304,0.364 0.724,0.546 1.26,0.546c0.232,0 0.43,-0.01 0.594,-0.03c0.164,-0.02 0.298,-0.042 0.402,-0.066l0,-3.6c-0.128,-0.088 -0.298,-0.17 -0.51,-0.246c-0.212,-0.076 -0.438,-0.114 -0.678,-0.114c-0.528,0 -0.914,0.18 -1.158,0.54c-0.244,0.36 -0.366,0.848 -0.366,1.464Zm4.164,2.964c-0.288,0.088 -0.65,0.168 -1.086,0.24c-0.436,0.072 -0.894,0.108 -1.374,0.108c-0.496,0 -0.94,-0.076 -1.332,-0.228c-0.392,-0.152 -0.726,-0.37 -1.002,-0.654c-0.276,-0.284 -0.488,-0.628 -0.636,-1.032c-0.148,-0.404 -0.222,-0.858 -0.222,-1.362c0,-0.496 0.062,-0.946 0.186,-1.35c0.124,-0.404 0.306,-0.75 0.546,-1.038c0.24,-0.288 0.532,-0.51 0.876,-0.666c0.344,-0.156 0.74,-0.234 1.188,-0.234c0.304,0 0.572,0.036 0.804,0.108c0.232,0.072 0.432,0.152 0.6,0.24l0,-3.012l1.452,-0.24l0,9.12Z" style="fill:#fa4094;fill-rule:nonzero;"/></svg>