<?xml version="1.0" encoding="UTF-8" standalone="no"?><!DOCTYPE svg PUBLIC "-//W3C//DTD SVG 1.1//EN" "http://www.w3.org/Graphics/SVG/1.1/DTD/svg11.dtd"><svg width="100%" height="100%" viewBox="0 0 24 24" version="1.1" xmlns="http://www.w3.org/2000/svg" xmlns:xlink="http://www.w3.org/1999/xlink" xml:space="preserve" xmlns:serif="http://www.serif.com/" style="fill-rule:evenodd;clip-rule:evenodd;stroke-linejoin:round;stroke-miterlimit:1.41421;"><rect id="invision" x="0" y="0" width="24" height="24" style="fill:none;"/><clipPath id="_clip1"><rect x="0" y="0" width="24" height="24"/></clipPath><g clip-path="url(#_clip1)"><path d="M24,2c0,-1.104 -0.896,-2 -2,-2l-20,0c-1.104,0 -2,0.896 -2,2l0,20c0,1.104 0.896,2 2,2l20,0c1.104,0 2,-0.896 2,-2l0,-20Z" style="fill:#dc395f;"/><path d="M7.438,7.925c0.808,0 1.485,-0.633 1.485,-1.463c0,-0.829 -0.677,-1.462 -1.485,-1.462c-0.807,0 -1.484,0.633 -1.484,1.462c0,0.83 0.677,1.463 1.484,1.463" style="fill:#fff;fill-rule:nonzero;"/><path d="M4.36,15.758c-0.087,0.371 -0.131,0.772 -0.131,1.099c0,1.288 0.699,2.143 2.183,2.143c1.232,0 2.23,-0.731 2.948,-1.912l-0.439,1.761l2.445,0l1.397,-5.604c0.35,-1.418 1.026,-2.155 2.052,-2.155c0.808,0 1.31,0.502 1.31,1.332c0,0.24 -0.022,0.502 -0.109,0.785l-0.721,2.576c-0.109,0.371 -0.152,0.743 -0.152,1.092c0,1.223 0.72,2.117 2.226,2.117c1.288,0 2.314,-0.829 2.882,-2.816l-0.961,-0.37c-0.48,1.33 -0.895,1.571 -1.222,1.571c-0.328,0 -0.502,-0.218 -0.502,-0.654c0,-0.197 0.043,-0.415 0.109,-0.677l0.699,-2.51c0.174,-0.589 0.24,-1.112 0.24,-1.592c0,-1.877 -1.136,-2.857 -2.511,-2.857c-1.288,0 -2.598,1.162 -3.252,2.384l0.48,-2.194l-3.733,0l-0.524,1.933l1.747,0l-1.076,4.305c-0.844,1.878 -2.396,1.908 -2.59,1.865c-0.32,-0.072 -0.524,-0.194 -0.524,-0.609c0,-0.24 0.043,-0.584 0.152,-0.999l1.638,-6.495l-4.148,0l-0.524,1.933l1.725,0l-1.114,4.548" style="fill:#fff;fill-rule:nonzero;"/></g></svg>