<?xml version="1.0" encoding="UTF-8" standalone="no"?><!DOCTYPE svg PUBLIC "-//W3C//DTD SVG 1.1//EN" "http://www.w3.org/Graphics/SVG/1.1/DTD/svg11.dtd"><svg width="100%" height="100%" viewBox="0 0 24 24" version="1.1" xmlns="http://www.w3.org/2000/svg" xmlns:xlink="http://www.w3.org/1999/xlink" xml:space="preserve" xmlns:serif="http://www.serif.com/" style="fill-rule:evenodd;clip-rule:evenodd;stroke-linejoin:round;stroke-miterlimit:1.41421;"><rect id="linkedin" x="0" y="0" width="24" height="24" style="fill:none;"/><clipPath id="_clip1"><rect x="0" y="0" width="24" height="24"/></clipPath><g clip-path="url(#_clip1)"><path d="M17.543,7.603c-2.419,0 -3.88,1.327 -4.543,2.585l0,-2.187l-5.001,0l0,15.999l5.001,0l0,-7.914c0,-2.088 0.411,-4.107 3,-4.107c2.55,0 3,2.363 3,4.218l0,7.803l5,0l0,-8.799c0,-4.308 -1.42,-7.599 -6.457,-7.599l-0.001,0l0.001,0.001Z" style="fill:#0a7dae;fill-rule:nonzero;"/><path d="M2.501,0.001c-1.382,0 -2.501,1.121 -2.501,2.5c0,1.38 1.119,2.5 2.501,2.5c1.378,0 2.499,-1.12 2.499,-2.5c0,-1.38 -1.121,-2.5 -2.499,-2.5l0,0Z" style="fill:#0a7dae;fill-rule:nonzero;"/><path d="M0,23.979l5,0l0,-15.978l-5,-0.021l0,15.999Z" style="fill:#0a7dae;fill-rule:nonzero;"/></g></svg>