<?xml version="1.0" encoding="UTF-8" standalone="no"?><!DOCTYPE svg PUBLIC "-//W3C//DTD SVG 1.1//EN" "http://www.w3.org/Graphics/SVG/1.1/DTD/svg11.dtd"><svg width="100%" height="100%" viewBox="0 0 24 24" version="1.1" xmlns="http://www.w3.org/2000/svg" xmlns:xlink="http://www.w3.org/1999/xlink" xml:space="preserve" xmlns:serif="http://www.serif.com/" style="fill-rule:evenodd;clip-rule:evenodd;stroke-linejoin:round;stroke-miterlimit:1.41421;"><rect id="photoshop" x="0" y="0" width="24" height="24" style="fill:none;"/><rect x="0" y="0" width="24" height="24" style="fill:#021d26;"/><path d="M24,24l-24,0l0,-24l24,0l0,24Zm-22,-22l0,20l20,0l0,-20l-20,0Z" style="fill:#36cbff;"/><path d="M8.868,7.912c1.208,0 2.134,0.22 2.778,0.66c0.644,0.44 0.966,1.128 0.966,2.064c0,0.488 -0.086,0.906 -0.258,1.254c-0.172,0.348 -0.422,0.632 -0.75,0.852c-0.328,0.22 -0.728,0.382 -1.2,0.486c-0.472,0.104 -1.012,0.156 -1.62,0.156l-0.756,0l0,2.928l-1.512,0l0,-8.196c0.352,-0.08 0.742,-0.134 1.17,-0.162c0.428,-0.028 0.822,-0.042 1.182,-0.042Zm0.108,1.308c-0.384,0 -0.7,0.012 -0.948,0.036l0,2.832l0.732,0c0.728,0 1.288,-0.102 1.68,-0.306c0.392,-0.204 0.588,-0.59 0.588,-1.158c0,-0.272 -0.052,-0.5 -0.156,-0.684c-0.104,-0.184 -0.248,-0.328 -0.432,-0.432c-0.184,-0.104 -0.402,-0.178 -0.654,-0.222c-0.252,-0.044 -0.522,-0.066 -0.81,-0.066Z" style="fill:#36cbff;fill-rule:nonzero;"/><path d="M15.492,15.268c0.384,0 0.664,-0.046 0.84,-0.138c0.176,-0.092 0.264,-0.25 0.264,-0.474c0,-0.208 -0.094,-0.38 -0.282,-0.516c-0.188,-0.136 -0.498,-0.284 -0.93,-0.444c-0.264,-0.096 -0.506,-0.198 -0.726,-0.306c-0.22,-0.108 -0.41,-0.234 -0.57,-0.378c-0.16,-0.144 -0.286,-0.318 -0.378,-0.522c-0.092,-0.204 -0.138,-0.454 -0.138,-0.75c0,-0.576 0.212,-1.03 0.636,-1.362c0.424,-0.332 1,-0.498 1.728,-0.498c0.368,0 0.72,0.034 1.056,0.102c0.336,0.068 0.588,0.134 0.756,0.198l-0.264,1.176c-0.16,-0.072 -0.364,-0.138 -0.612,-0.198c-0.248,-0.06 -0.536,-0.09 -0.864,-0.09c-0.296,0 -0.536,0.05 -0.72,0.15c-0.184,0.1 -0.276,0.254 -0.276,0.462c0,0.104 0.018,0.196 0.054,0.276c0.036,0.08 0.098,0.154 0.186,0.222c0.088,0.068 0.204,0.136 0.348,0.204c0.144,0.068 0.32,0.138 0.528,0.21c0.344,0.128 0.636,0.254 0.876,0.378c0.24,0.124 0.438,0.264 0.594,0.42c0.156,0.156 0.27,0.334 0.342,0.534c0.072,0.2 0.108,0.44 0.108,0.72c0,0.6 -0.222,1.054 -0.666,1.362c-0.444,0.308 -1.078,0.462 -1.902,0.462c-0.552,0 -0.996,-0.046 -1.332,-0.138c-0.336,-0.092 -0.572,-0.166 -0.708,-0.222l0.252,-1.212c0.216,0.088 0.474,0.172 0.774,0.252c0.3,0.08 0.642,0.12 1.026,0.12Z" style="fill:#36cbff;fill-rule:nonzero;"/></svg>