<?xml version="1.0" encoding="UTF-8" standalone="no"?><!DOCTYPE svg PUBLIC "-//W3C//DTD SVG 1.1//EN" "http://www.w3.org/Graphics/SVG/1.1/DTD/svg11.dtd"><svg width="100%" height="100%" viewBox="0 0 24 24" version="1.1" xmlns="http://www.w3.org/2000/svg" xmlns:xlink="http://www.w3.org/1999/xlink" xml:space="preserve" xmlns:serif="http://www.serif.com/" style="fill-rule:evenodd;clip-rule:evenodd;stroke-linejoin:round;stroke-miterlimit:1.41421;"><rect id="pinterest" x="0" y="0" width="24" height="24" style="fill:none;"/><clipPath id="_clip1"><rect x="0" y="0" width="24" height="24"/></clipPath><g clip-path="url(#_clip1)"><path d="M24,12c0,6.627 -5.373,12 -12,12c-6.627,0 -12,-5.373 -12,-12c0,-6.627 5.373,-12 12,-12c6.627,0 12,5.373 12,12" style="fill:#fff;fill-rule:nonzero;"/><path d="M12,0c-6.627,0 -12,5.373 -12,12c0,5.084 3.163,9.43 7.627,11.178c-0.105,-0.949 -0.2,-2.409 0.042,-3.446c0.218,-0.936 1.407,-5.965 1.407,-5.965c0,0 -0.359,-0.719 -0.359,-1.781c0,-1.669 0.967,-2.915 2.171,-2.915c1.024,0 1.518,0.769 1.518,1.691c0,1.029 -0.655,2.569 -0.993,3.995c-0.283,1.195 0.598,2.169 1.776,2.169c2.133,0 3.773,-2.249 3.773,-5.495c0,-2.874 -2.065,-4.883 -5.013,-4.883c-3.414,0 -5.418,2.561 -5.418,5.208c0,1.031 0.397,2.138 0.893,2.739c0.098,0.118 0.112,0.223 0.083,0.344c-0.091,0.379 -0.293,1.194 -0.333,1.361c-0.053,0.219 -0.174,0.266 -0.402,0.16c-1.498,-0.697 -2.435,-2.889 -2.435,-4.649c0,-3.785 2.75,-7.261 7.929,-7.261c4.162,0 7.397,2.966 7.397,6.93c0,4.136 -2.607,7.464 -6.227,7.464c-1.216,0 -2.359,-0.631 -2.75,-1.378c0,0 -0.602,2.292 -0.748,2.853c-0.271,1.042 -1.002,2.349 -1.491,3.146c1.123,0.347 2.316,0.535 3.553,0.535c6.627,0 12,-5.373 12,-12c0,-6.627 -5.373,-12 -12,-12" style="fill:#bd081c;fill-rule:nonzero;"/></g></svg>