<?xml version="1.0" encoding="UTF-8" standalone="no"?><!DOCTYPE svg PUBLIC "-//W3C//DTD SVG 1.1//EN" "http://www.w3.org/Graphics/SVG/1.1/DTD/svg11.dtd"><svg width="100%" height="100%" viewBox="0 0 24 24" version="1.1" xmlns="http://www.w3.org/2000/svg" xmlns:xlink="http://www.w3.org/1999/xlink" xml:space="preserve" xmlns:serif="http://www.serif.com/" style="fill-rule:evenodd;clip-rule:evenodd;stroke-linejoin:round;stroke-miterlimit:1.41421;"><rect id="premiere" x="0" y="0" width="24" height="24" style="fill:none;"/><clipPath id="_clip1"><rect x="0" y="0" width="24" height="24"/></clipPath><g clip-path="url(#_clip1)"><rect x="0" y="0" width="24" height="24" style="fill:#361d40;"/><path d="M24,24l-24,0l0,-24l24,0l0,24Zm-22,-22l0,20l20,0l0,-20l-20,0Z" style="fill:#de81ff;"/><path d="M9.192,7.912c1.208,0 2.134,0.22 2.778,0.66c0.644,0.44 0.966,1.128 0.966,2.064c0,0.488 -0.086,0.906 -0.258,1.254c-0.172,0.348 -0.422,0.632 -0.75,0.852c-0.328,0.22 -0.728,0.382 -1.2,0.486c-0.472,0.104 -1.012,0.156 -1.62,0.156l-0.756,0l0,2.928l-1.512,0l0,-8.196c0.352,-0.08 0.742,-0.134 1.17,-0.162c0.428,-0.028 0.822,-0.042 1.182,-0.042Zm0.108,1.308c-0.384,0 -0.7,0.012 -0.948,0.036l0,2.832l0.732,0c0.728,0 1.288,-0.102 1.68,-0.306c0.392,-0.204 0.588,-0.59 0.588,-1.158c0,-0.272 -0.052,-0.5 -0.156,-0.684c-0.104,-0.184 -0.248,-0.328 -0.432,-0.432c-0.184,-0.104 -0.402,-0.178 -0.654,-0.222c-0.252,-0.044 -0.522,-0.066 -0.81,-0.066Z" style="fill:#de81ff;fill-rule:nonzero;"/><path d="M17.82,11.344c-0.12,-0.04 -0.286,-0.082 -0.498,-0.126c-0.212,-0.044 -0.458,-0.066 -0.738,-0.066c-0.16,0 -0.33,0.016 -0.51,0.048c-0.18,0.032 -0.306,0.06 -0.378,0.084l0,5.028l-1.452,0l0,-5.976c0.28,-0.104 0.63,-0.202 1.05,-0.294c0.42,-0.092 0.886,-0.138 1.398,-0.138c0.096,0 0.208,0.006 0.336,0.018c0.128,0.012 0.256,0.028 0.384,0.048c0.128,0.02 0.252,0.044 0.372,0.072c0.12,0.028 0.216,0.054 0.288,0.078l-0.252,1.224Z" style="fill:#de81ff;fill-rule:nonzero;"/></g></svg>