<?xml version="1.0" encoding="UTF-8" standalone="no"?><!DOCTYPE svg PUBLIC "-//W3C//DTD SVG 1.1//EN" "http://www.w3.org/Graphics/SVG/1.1/DTD/svg11.dtd"><svg width="100%" height="100%" viewBox="0 0 24 24" version="1.1" xmlns="http://www.w3.org/2000/svg" xmlns:xlink="http://www.w3.org/1999/xlink" xml:space="preserve" xmlns:serif="http://www.serif.com/" style="fill-rule:evenodd;clip-rule:evenodd;stroke-linejoin:round;stroke-miterlimit:1.41421;"><rect id="sketchapp" x="0" y="0" width="24" height="24" style="fill:none;"/><path d="M24,8l-12,15l7,-11l5,-4Z" style="fill:url(#_Linear1);"/><path d="M0,8l12,15l-7,-11l-5,-4Z" style="fill:url(#_Linear2);"/><path d="M5,12l7,11l7,-11l-14,0Z" style="fill:url(#_Radial3);"/><g><path d="M20,4l-4,2l3,6l5,-4l-4,-4Z" style="fill:url(#_Linear4);"/><path d="M24,8l-4,-4l0,3l4,1Z" style="fill:url(#_Linear5);"/><path d="M20,4l0,3l-4,-1l4,-2Z" style="fill:url(#_Linear6);"/></g><g><path d="M4,4l4,2l-3,6l-5,-4l4,-4Z" style="fill:url(#_Linear7);"/><path d="M0,8l4,-4l0,3l-4,1Z" style="fill:url(#_Linear8);"/><path d="M4,4l0,3l4,-1l-4,-2Z" style="fill:url(#_Linear9);"/></g><g><path d="M8,6l-3,6l14,0l-3,-6l-8,0Z" style="fill:url(#_Linear10);"/><path d="M16,6l-4,2l7,4l-3,-6Z" style="fill:url(#_Linear11);"/><path d="M8,6l4,2l-7,4l3,-6Z" style="fill:url(#_Linear12);"/><path d="M8,6l4,2l4,-2l-8,0Z" style="fill:url(#_Linear13);"/></g><path d="M4,4l4,-2l8,0l4,2l-4,2l-8,0l-4,-2Z" style="fill:url(#_Radial14);"/><defs><linearGradient id="_Linear1" x1="0" y1="0" x2="1" y2="0" gradientUnits="userSpaceOnUse" gradientTransform="matrix(-9.5,13,-13,-9.5,21.5,10)"><stop offset="0" style="stop-color:#d33a05;stop-opacity:1"/><stop offset="1" style="stop-color:#ec851a;stop-opacity:1"/></linearGradient><linearGradient id="_Linear2" x1="0" y1="0" x2="1" y2="0" gradientUnits="userSpaceOnUse" gradientTransform="matrix(9.5,13,13,-9.5,2.5,10)"><stop offset="0" style="stop-color:#d33a05;stop-opacity:1"/><stop offset="1" style="stop-color:#ec851a;stop-opacity:1"/></linearGradient><radialGradient id="_Radial3" cx="0" cy="0" r="1" gradientUnits="userSpaceOnUse" gradientTransform="matrix(6.73556e-16,-11,12,7.34788e-16,12,23)"><stop offset="0" style="stop-color:#f3bf39;stop-opacity:1"/><stop offset="0.48" style="stop-color:#f2b233;stop-opacity:1"/><stop offset="0.9" style="stop-color:#ed821d;stop-opacity:1"/><stop offset="1" style="stop-color:#db560c;stop-opacity:1"/></radialGradient><linearGradient id="_Linear4" x1="0" y1="0" x2="1" y2="0" gradientUnits="userSpaceOnUse" gradientTransform="matrix(7,3,-3,7,16,6)"><stop offset="0" style="stop-color:#ee8c26;stop-opacity:1"/><stop offset="1" style="stop-color:#fbcf5a;stop-opacity:1"/></linearGradient><linearGradient id="_Linear5" x1="0" y1="0" x2="1" y2="0" gradientUnits="userSpaceOnUse" gradientTransform="matrix(4,3,-3,4,20,5)"><stop offset="0" style="stop-color:#facd51;stop-opacity:1"/><stop offset="1" style="stop-color:#fffff8;stop-opacity:1"/></linearGradient><linearGradient id="_Linear6" x1="0" y1="0" x2="1" y2="0" gradientUnits="userSpaceOnUse" gradientTransform="matrix(4,1,-1,4,16,6)"><stop offset="0" style="stop-color:#fef3dc;stop-opacity:1"/><stop offset="1" style="stop-color:#ffe273;stop-opacity:1"/></linearGradient><linearGradient id="_Linear7" x1="0" y1="0" x2="1" y2="0" gradientUnits="userSpaceOnUse" gradientTransform="matrix(-7,3,-3,-7,8,6)"><stop offset="0" style="stop-color:#ee8c26;stop-opacity:1"/><stop offset="1" style="stop-color:#fbcf5a;stop-opacity:1"/></linearGradient><linearGradient id="_Linear8" x1="0" y1="0" x2="1" y2="0" gradientUnits="userSpaceOnUse" gradientTransform="matrix(-4,3,-3,-4,4,5)"><stop offset="0" style="stop-color:#facd51;stop-opacity:1"/><stop offset="1" style="stop-color:#fffff8;stop-opacity:1"/></linearGradient><linearGradient id="_Linear9" x1="0" y1="0" x2="1" y2="0" gradientUnits="userSpaceOnUse" gradientTransform="matrix(-4,1,-1,-4,8,6)"><stop offset="0" style="stop-color:#fef3dc;stop-opacity:1"/><stop offset="1" style="stop-color:#ffe273;stop-opacity:1"/></linearGradient><linearGradient id="_Linear10" x1="0" y1="0" x2="1" y2="0" gradientUnits="userSpaceOnUse" gradientTransform="matrix(14,0,0,14,5,12)"><stop offset="0" style="stop-color:#ea6912;stop-opacity:1"/><stop offset="1" style="stop-color:#f9c944;stop-opacity:1"/></linearGradient><linearGradient id="_Linear11" x1="0" y1="0" x2="1" y2="0" gradientUnits="userSpaceOnUse" gradientTransform="matrix(6,4,-4,6,13,8)"><stop offset="0" style="stop-color:#fbc843;stop-opacity:1"/><stop offset="1" style="stop-color:#fff;stop-opacity:1"/></linearGradient><linearGradient id="_Linear12" x1="0" y1="0" x2="1" y2="0" gradientUnits="userSpaceOnUse" gradientTransform="matrix(-6,4,-4,-6,11,8)"><stop offset="0" style="stop-color:#fbc843;stop-opacity:1"/><stop offset="1" style="stop-color:#fff;stop-opacity:1"/></linearGradient><linearGradient id="_Linear13" x1="0" y1="0" x2="1" y2="0" gradientUnits="userSpaceOnUse" gradientTransform="matrix(1.22465e-16,2,-2,1.22465e-16,12,6)"><stop offset="0" style="stop-color:#fef9c9;stop-opacity:1"/><stop offset="1" style="stop-color:#fff;stop-opacity:1"/></linearGradient><radialGradient id="_Radial14" cx="0" cy="0" r="1" gradientUnits="userSpaceOnUse" gradientTransform="matrix(-12,1.46958e-15,-4.89859e-16,-4,12,2)"><stop offset="0" style="stop-color:#ffffec;stop-opacity:1"/><stop offset="0.23" style="stop-color:#fef9d1;stop-opacity:1"/><stop offset="0.53" style="stop-color:#fcdc5a;stop-opacity:1"/><stop offset="0.83" style="stop-color:#ed971c;stop-opacity:1"/><stop offset="0.91" style="stop-color:#e98217;stop-opacity:1"/><stop offset="1" style="stop-color:#df4909;stop-opacity:1"/></radialGradient></defs></svg>