<?xml version="1.0" encoding="UTF-8" standalone="no"?><!DOCTYPE svg PUBLIC "-//W3C//DTD SVG 1.1//EN" "http://www.w3.org/Graphics/SVG/1.1/DTD/svg11.dtd"><svg width="100%" height="100%" viewBox="0 0 24 24" version="1.1" xmlns="http://www.w3.org/2000/svg" xmlns:xlink="http://www.w3.org/1999/xlink" xml:space="preserve" xmlns:serif="http://www.serif.com/" style="fill-rule:evenodd;clip-rule:evenodd;stroke-linejoin:round;stroke-miterlimit:1.41421;"><rect id="tumblr" x="0" y="0" width="24" height="24" style="fill:none;"/><clipPath id="_clip1"><rect x="0" y="0" width="24" height="24"/></clipPath><g clip-path="url(#_clip1)"><path d="M14.561,24c-5.094,0 -7.03,-3.757 -7.03,-6.411l0,-7.841l-2.427,0l0,-3.1c3.64,-1.312 4.515,-4.596 4.721,-6.469c0.014,-0.128 0.115,-0.179 0.173,-0.179l3.516,0l0,6.114l4.802,0l0,3.634l-4.82,0l0,7.471c0.016,0.998 0.375,2.368 2.208,2.368c0.033,0 0.067,-0.001 0.102,-0.001c0.636,-0.017 1.49,-0.202 1.936,-0.415l1.154,3.423c-0.432,0.636 -2.391,1.375 -4.155,1.405c-0.061,0.001 -0.121,0.001 -0.18,0.001Z" style="fill:#36465d;fill-rule:nonzero;"/></g></svg>