<?xml version="1.0" encoding="UTF-8" standalone="no"?><!DOCTYPE svg PUBLIC "-//W3C//DTD SVG 1.1//EN" "http://www.w3.org/Graphics/SVG/1.1/DTD/svg11.dtd"><svg width="100%" height="100%" viewBox="0 0 24 24" version="1.1" xmlns="http://www.w3.org/2000/svg" xmlns:xlink="http://www.w3.org/1999/xlink" xml:space="preserve" xmlns:serif="http://www.serif.com/" style="fill-rule:evenodd;clip-rule:evenodd;stroke-linejoin:round;stroke-miterlimit:1.41421;"><rect id="twitter" x="0" y="0" width="24" height="24" style="fill:none;"/><clipPath id="_clip1"><rect x="0" y="0" width="24" height="24"/></clipPath><g clip-path="url(#_clip1)"><path d="M21.539,7.105c0.008,0.208 0.012,0.422 0.012,0.635c0,6.506 -4.949,14.008 -14.005,14.008c-2.782,0 -5.37,-0.817 -7.546,-2.211c0.385,0.039 0.776,0.067 1.173,0.067c2.311,0 4.431,-0.788 6.115,-2.108c-2.152,-0.041 -3.97,-1.467 -4.596,-3.421c0.301,0.06 0.608,0.091 0.927,0.091c0.449,0 0.886,-0.062 1.296,-0.174c-2.251,-0.449 -3.949,-2.44 -3.949,-4.827l0,-0.058c0.666,0.367 1.425,0.59 2.231,0.613c-1.321,-0.879 -2.189,-2.387 -2.189,-4.095c0,-0.902 0.243,-1.746 0.665,-2.475c2.426,2.979 6.053,4.942 10.146,5.147c-0.085,-0.358 -0.129,-0.737 -0.129,-1.121c0,-2.717 2.208,-4.924 4.922,-4.924c1.419,0 2.699,0.601 3.599,1.553c1.118,-0.221 2.172,-0.629 3.121,-1.193c-0.363,1.15 -1.144,2.117 -2.161,2.727c0.992,-0.119 1.936,-0.384 2.818,-0.773c0.001,-0.002 0.006,-0.007 0.01,-0.012l0.001,0.007c-0.002,0.003 -0.007,0.005 -0.012,0.005c-0.659,0.983 -1.495,1.846 -2.449,2.539" style="fill:#55acee;fill-rule:nonzero;"/></g></svg>