<?xml version="1.0" encoding="UTF-8" standalone="no"?><!DOCTYPE svg PUBLIC "-//W3C//DTD SVG 1.1//EN" "http://www.w3.org/Graphics/SVG/1.1/DTD/svg11.dtd"><svg width="100%" height="100%" viewBox="0 0 24 24" version="1.1" xmlns="http://www.w3.org/2000/svg" xmlns:xlink="http://www.w3.org/1999/xlink" xml:space="preserve" xmlns:serif="http://www.serif.com/" style="fill-rule:evenodd;clip-rule:evenodd;stroke-linejoin:round;stroke-miterlimit:1.41421;"><rect id="wordpress" x="0" y="0" width="24" height="24" style="fill:none;"/><clipPath id="_clip1"><rect x="0" y="0" width="24" height="24"/></clipPath><g clip-path="url(#_clip1)"><circle cx="12" cy="12" r="12" style="fill:#fff;"/><path d="M12.155,0.001l0.155,0.003l0.154,0.005l0.153,0.007l0.153,0.008l0.153,0.011l0.152,0.013l0.151,0.014l0.151,0.016l0.15,0.018l0.15,0.021l0.149,0.021l0.149,0.024l0.148,0.026l0.147,0.027l0.147,0.029l0.146,0.031l0.146,0.033l0.144,0.034l0.145,0.036l0.143,0.038l0.143,0.04l0.142,0.041l0.141,0.043l0.14,0.045l0.14,0.046l0.139,0.048l0.138,0.05l0.138,0.051l0.136,0.053l0.136,0.054l0.135,0.057l0.134,0.057l0.134,0.06l0.132,0.061l0.132,0.062l0.13,0.064l0.13,0.066l0.129,0.067l0.128,0.068l0.127,0.07l0.126,0.072l0.125,0.073l0.124,0.074l0.124,0.076l0.122,0.078l0.121,0.078l0.12,0.081l0.12,0.081l0.118,0.083l0.117,0.085l0.116,0.085l0.115,0.087l0.114,0.089l0.113,0.09l0.111,0.091l0.111,0.092l0.109,0.094l0.109,0.095l0.107,0.096l0.106,0.097l0.105,0.099l0.103,0.1l0.103,0.101l0.101,0.103l0.1,0.103l0.099,0.105l0.097,0.106l0.096,0.107l0.095,0.109l0.094,0.109l0.092,0.111l0.091,0.111l0.09,0.113l0.089,0.114l0.087,0.115l0.085,0.116l0.085,0.117l0.083,0.118l0.081,0.12l0.081,0.12l0.078,0.121l0.078,0.122l0.076,0.124l0.074,0.124l0.073,0.125l0.072,0.126l0.07,0.127l0.068,0.128l0.067,0.129l0.066,0.13l0.064,0.13l0.062,0.132l0.061,0.132l0.06,0.134l0.057,0.134l0.057,0.135l0.054,0.136l0.053,0.136l0.051,0.138l0.05,0.138l0.048,0.139l0.046,0.14l0.045,0.14l0.043,0.141l0.041,0.142l0.04,0.143l0.038,0.143l0.036,0.145l0.034,0.144l0.033,0.146l0.031,0.146l0.029,0.147l0.027,0.147l0.026,0.148l0.024,0.149l0.021,0.149l0.021,0.15l0.018,0.15l0.016,0.151l0.014,0.151l0.013,0.152l0.011,0.153l0.008,0.153l0.007,0.153l0.005,0.154l0.003,0.155l0.001,0.155l-0.001,0.155l-0.003,0.155l-0.005,0.154l-0.007,0.153l-0.008,0.153l-0.011,0.153l-0.013,0.152l-0.014,0.151l-0.016,0.151l-0.018,0.15l-0.021,0.15l-0.021,0.149l-0.024,0.149l-0.026,0.148l-0.027,0.147l-0.029,0.147l-0.031,0.146l-0.033,0.146l-0.034,0.144l-0.036,0.145l-0.038,0.143l-0.04,0.143l-0.041,0.142l-0.043,0.141l-0.045,0.14l-0.046,0.14l-0.048,0.139l-0.05,0.138l-0.051,0.138l-0.053,0.136l-0.054,0.136l-0.057,0.135l-0.057,0.134l-0.06,0.134l-0.061,0.132l-0.062,0.132l-0.064,0.13l-0.066,0.13l-0.067,0.129l-0.068,0.128l-0.07,0.127l-0.072,0.126l-0.073,0.125l-0.074,0.124l-0.076,0.124l-0.078,0.122l-0.078,0.121l-0.081,0.12l-0.081,0.12l-0.083,0.118l-0.085,0.117l-0.085,0.116l-0.087,0.115l-0.089,0.114l-0.09,0.113l-0.091,0.111l-0.092,0.111l-0.094,0.109l-0.095,0.109l-0.096,0.107l-0.097,0.106l-0.099,0.105l-0.1,0.103l-0.101,0.103l-0.103,0.101l-0.103,0.1l-0.105,0.099l-0.106,0.097l-0.107,0.096l-0.109,0.095l-0.109,0.094l-0.111,0.092l-0.111,0.091l-0.113,0.09l-0.114,0.089l-0.115,0.087l-0.116,0.085l-0.117,0.085l-0.118,0.083l-0.12,0.081l-0.12,0.081l-0.121,0.078l-0.122,0.078l-0.124,0.076l-0.124,0.074l-0.125,0.073l-0.126,0.072l-0.127,0.07l-0.128,0.068l-0.129,0.067l-0.13,0.066l-0.13,0.064l-0.132,0.062l-0.132,0.061l-0.134,0.06l-0.134,0.057l-0.135,0.057l-0.136,0.054l-0.136,0.053l-0.138,0.051l-0.138,0.05l-0.139,0.048l-0.14,0.046l-0.14,0.045l-0.141,0.043l-0.142,0.041l-0.143,0.04l-0.143,0.038l-0.145,0.036l-0.144,0.034l-0.146,0.033l-0.146,0.031l-0.147,0.029l-0.147,0.027l-0.148,0.026l-0.149,0.024l-0.149,0.021l-0.15,0.021l-0.15,0.018l-0.151,0.016l-0.151,0.014l-0.152,0.013l-0.153,0.011l-0.153,0.008l-0.153,0.007l-0.154,0.005l-0.155,0.003l-0.155,0.001l-0.155,-0.001l-0.155,-0.003l-0.154,-0.005l-0.153,-0.007l-0.153,-0.008l-0.153,-0.011l-0.152,-0.013l-0.151,-0.014l-0.151,-0.016l-0.15,-0.018l-0.15,-0.021l-0.149,-0.021l-0.149,-0.024l-0.148,-0.026l-0.147,-0.027l-0.147,-0.029l-0.146,-0.031l-0.146,-0.033l-0.144,-0.034l-0.145,-0.036l-0.143,-0.038l-0.143,-0.04l-0.142,-0.041l-0.141,-0.043l-0.14,-0.045l-0.14,-0.046l-0.139,-0.048l-0.138,-0.05l-0.138,-0.051l-0.136,-0.053l-0.136,-0.054l-0.135,-0.057l-0.134,-0.057l-0.134,-0.06l-0.132,-0.061l-0.132,-0.062l-0.13,-0.064l-0.13,-0.066l-0.129,-0.067l-0.128,-0.068l-0.127,-0.07l-0.126,-0.072l-0.125,-0.073l-0.124,-0.074l-0.124,-0.076l-0.122,-0.078l-0.121,-0.078l-0.12,-0.081l-0.12,-0.081l-0.118,-0.083l-0.117,-0.085l-0.116,-0.085l-0.115,-0.087l-0.114,-0.089l-0.113,-0.09l-0.111,-0.091l-0.111,-0.092l-0.109,-0.094l-0.109,-0.095l-0.107,-0.096l-0.106,-0.097l-0.105,-0.099l-0.103,-0.1l-0.103,-0.101l-0.101,-0.103l-0.1,-0.103l-0.099,-0.105l-0.097,-0.106l-0.096,-0.107l-0.095,-0.109l-0.094,-0.109l-0.092,-0.111l-0.091,-0.111l-0.09,-0.113l-0.089,-0.114l-0.087,-0.115l-0.085,-0.116l-0.085,-0.117l-0.083,-0.118l-0.081,-0.12l-0.081,-0.12l-0.078,-0.121l-0.078,-0.122l-0.076,-0.124l-0.074,-0.124l-0.073,-0.125l-0.072,-0.126l-0.07,-0.127l-0.068,-0.128l-0.067,-0.129l-0.066,-0.13l-0.064,-0.13l-0.062,-0.132l-0.061,-0.132l-0.06,-0.134l-0.057,-0.134l-0.057,-0.135l-0.054,-0.136l-0.053,-0.136l-0.051,-0.138l-0.05,-0.138l-0.048,-0.139l-0.046,-0.14l-0.045,-0.14l-0.043,-0.141l-0.041,-0.142l-0.04,-0.143l-0.038,-0.143l-0.036,-0.145l-0.034,-0.144l-0.033,-0.146l-0.031,-0.146l-0.029,-0.147l-0.027,-0.147l-0.026,-0.148l-0.024,-0.149l-0.021,-0.149l-0.021,-0.15l-0.018,-0.15l-0.016,-0.151l-0.014,-0.151l-0.013,-0.152l-0.011,-0.153l-0.008,-0.153l-0.007,-0.153l-0.005,-0.154l-0.003,-0.155l-0.001,-0.155l0.001,-0.155l0.003,-0.155l0.005,-0.154l0.007,-0.153l0.008,-0.153l0.011,-0.153l0.013,-0.152l0.014,-0.151l0.016,-0.151l0.018,-0.15l0.021,-0.15l0.021,-0.149l0.024,-0.149l0.026,-0.148l0.027,-0.147l0.029,-0.147l0.031,-0.146l0.033,-0.146l0.034,-0.144l0.036,-0.145l0.038,-0.143l0.04,-0.143l0.041,-0.142l0.043,-0.141l0.045,-0.14l0.046,-0.14l0.048,-0.139l0.05,-0.138l0.051,-0.138l0.053,-0.136l0.054,-0.136l0.057,-0.135l0.057,-0.134l0.06,-0.134l0.061,-0.132l0.062,-0.132l0.064,-0.13l0.066,-0.13l0.067,-0.129l0.068,-0.128l0.07,-0.127l0.072,-0.126l0.073,-0.125l0.074,-0.124l0.076,-0.124l0.078,-0.122l0.078,-0.121l0.081,-0.12l0.081,-0.12l0.083,-0.118l0.085,-0.117l0.085,-0.116l0.087,-0.115l0.089,-0.114l0.09,-0.113l0.091,-0.111l0.092,-0.111l0.094,-0.109l0.095,-0.109l0.096,-0.107l0.097,-0.106l0.099,-0.105l0.1,-0.103l0.101,-0.103l0.103,-0.101l0.103,-0.1l0.105,-0.099l0.106,-0.097l0.107,-0.096l0.109,-0.095l0.109,-0.094l0.111,-0.092l0.111,-0.091l0.113,-0.09l0.114,-0.089l0.115,-0.087l0.116,-0.085l0.117,-0.085l0.118,-0.083l0.12,-0.081l0.12,-0.081l0.121,-0.078l0.122,-0.078l0.124,-0.076l0.124,-0.074l0.125,-0.073l0.126,-0.072l0.127,-0.07l0.128,-0.068l0.129,-0.067l0.13,-0.066l0.13,-0.064l0.132,-0.062l0.132,-0.061l0.134,-0.06l0.134,-0.057l0.135,-0.057l0.136,-0.054l0.136,-0.053l0.138,-0.051l0.138,-0.05l0.139,-0.048l0.14,-0.046l0.14,-0.045l0.141,-0.043l0.142,-0.041l0.143,-0.04l0.143,-0.038l0.145,-0.036l0.144,-0.034l0.146,-0.033l0.146,-0.031l0.147,-0.029l0.147,-0.027l0.148,-0.026l0.149,-0.024l0.149,-0.021l0.15,-0.021l0.15,-0.018l0.151,-0.016l0.151,-0.014l0.152,-0.013l0.153,-0.011l0.153,-0.008l0.153,-0.007l0.154,-0.005l0.155,-0.003l0.155,-0.001l0.155,0.001Zm-0.297,1l-0.142,0.003l-0.142,0.004l-0.14,0.006l-0.141,0.008l-0.14,0.01l-0.139,0.012l-0.139,0.013l-0.138,0.015l-0.138,0.017l-0.138,0.018l-0.136,0.02l-0.136,0.022l-0.136,0.023l-0.135,0.025l-0.134,0.027l-0.134,0.028l-0.134,0.03l-0.132,0.031l-0.132,0.033l-0.131,0.035l-0.131,0.036l-0.13,0.038l-0.13,0.04l-0.128,0.041l-0.128,0.042l-0.128,0.044l-0.126,0.046l-0.126,0.047l-0.125,0.048l-0.125,0.05l-0.123,0.052l-0.123,0.052l-0.122,0.055l-0.122,0.056l-0.12,0.057l-0.12,0.059l-0.119,0.06l-0.118,0.061l-0.117,0.063l-0.117,0.064l-0.115,0.066l-0.115,0.067l-0.114,0.068l-0.113,0.069l-0.112,0.071l-0.111,0.073l-0.11,0.073l-0.11,0.075l-0.108,0.076l-0.107,0.077l-0.107,0.079l-0.105,0.08l-0.105,0.081l-0.103,0.082l-0.103,0.084l-0.101,0.085l-0.101,0.086l-0.099,0.087l-0.098,0.088l-0.097,0.089l-0.096,0.091l-0.096,0.092l-0.093,0.092l-0.093,0.094l-0.092,0.096l-0.091,0.096l-0.089,0.097l-0.088,0.098l-0.087,0.099l-0.086,0.101l-0.085,0.101l-0.084,0.103l-0.082,0.103l-0.081,0.105l-0.08,0.105l-0.079,0.107l-0.077,0.107l-0.076,0.108l-0.075,0.11l-0.073,0.11l-0.073,0.111l-0.071,0.112l-0.069,0.113l-0.068,0.114l-0.067,0.115l-0.066,0.115l-0.064,0.117l-0.063,0.117l-0.061,0.118l-0.06,0.119l-0.059,0.12l-0.057,0.12l-0.056,0.122l-0.055,0.122l-0.052,0.123l-0.052,0.123l-0.05,0.125l-0.048,0.125l-0.047,0.126l-0.046,0.126l-0.044,0.128l-0.042,0.128l-0.041,0.128l-0.04,0.13l-0.038,0.13l-0.036,0.131l-0.035,0.131l-0.033,0.132l-0.031,0.132l-0.03,0.134l-0.028,0.134l-0.027,0.134l-0.025,0.135l-0.023,0.136l-0.022,0.136l-0.02,0.136l-0.018,0.138l-0.017,0.138l-0.015,0.138l-0.013,0.139l-0.012,0.139l-0.01,0.14l-0.008,0.141l-0.006,0.14l-0.004,0.142l-0.003,0.142l-0.001,0.142l0.001,0.142l0.003,0.142l0.004,0.142l0.006,0.14l0.008,0.141l0.01,0.14l0.012,0.139l0.013,0.139l0.015,0.138l0.017,0.138l0.018,0.137l0.02,0.137l0.022,0.136l0.023,0.136l0.025,0.135l0.027,0.134l0.028,0.134l0.03,0.134l0.031,0.132l0.033,0.132l0.035,0.131l0.036,0.131l0.038,0.13l0.04,0.13l0.041,0.128l0.042,0.128l0.044,0.128l0.046,0.126l0.047,0.126l0.048,0.125l0.05,0.125l0.052,0.123l0.052,0.123l0.055,0.122l0.056,0.122l0.057,0.12l0.059,0.12l0.06,0.119l0.061,0.118l0.063,0.117l0.064,0.117l0.066,0.115l0.067,0.115l0.068,0.114l0.069,0.113l0.071,0.112l0.073,0.111l0.073,0.11l0.075,0.11l0.076,0.108l0.077,0.107l0.079,0.107l0.08,0.105l0.081,0.105l0.082,0.103l0.084,0.103l0.085,0.101l0.086,0.101l0.087,0.099l0.088,0.098l0.089,0.097l0.091,0.096l0.092,0.096l0.093,0.094l0.093,0.092l0.095,0.092l0.097,0.091l0.097,0.089l0.098,0.088l0.099,0.087l0.101,0.086l0.101,0.085l0.103,0.084l0.103,0.082l0.105,0.081l0.105,0.08l0.107,0.079l0.107,0.077l0.108,0.076l0.11,0.075l0.11,0.073l0.111,0.073l0.112,0.071l0.113,0.069l0.114,0.068l0.115,0.067l0.115,0.066l0.117,0.064l0.117,0.063l0.118,0.061l0.119,0.06l0.12,0.059l0.12,0.057l0.122,0.056l0.122,0.055l0.123,0.052l0.123,0.052l0.125,0.05l0.125,0.048l0.126,0.047l0.126,0.046l0.128,0.044l0.128,0.042l0.128,0.041l0.13,0.04l0.13,0.038l0.131,0.036l0.131,0.035l0.132,0.033l0.132,0.031l0.134,0.03l0.134,0.028l0.134,0.027l0.135,0.025l0.136,0.023l0.136,0.022l0.136,0.02l0.138,0.018l0.138,0.017l0.138,0.015l0.139,0.013l0.139,0.012l0.14,0.01l0.141,0.008l0.14,0.006l0.142,0.004l0.142,0.003l0.142,0.001l0.142,-0.001l0.142,-0.003l0.142,-0.004l0.14,-0.006l0.141,-0.008l0.14,-0.01l0.139,-0.012l0.139,-0.013l0.138,-0.015l0.138,-0.017l0.138,-0.018l0.136,-0.02l0.136,-0.022l0.136,-0.023l0.135,-0.025l0.134,-0.027l0.134,-0.028l0.134,-0.03l0.132,-0.031l0.132,-0.033l0.131,-0.035l0.131,-0.036l0.13,-0.038l0.13,-0.04l0.128,-0.041l0.128,-0.042l0.128,-0.044l0.126,-0.046l0.126,-0.047l0.125,-0.048l0.125,-0.05l0.123,-0.052l0.123,-0.052l0.122,-0.055l0.122,-0.056l0.12,-0.057l0.12,-0.059l0.119,-0.06l0.118,-0.061l0.117,-0.063l0.117,-0.064l0.115,-0.066l0.115,-0.067l0.114,-0.068l0.113,-0.069l0.112,-0.071l0.111,-0.073l0.11,-0.073l0.11,-0.075l0.108,-0.076l0.107,-0.077l0.107,-0.079l0.105,-0.08l0.105,-0.081l0.103,-0.082l0.103,-0.084l0.101,-0.085l0.101,-0.086l0.099,-0.087l0.098,-0.088l0.097,-0.089l0.096,-0.091l0.096,-0.092l0.094,-0.093l0.092,-0.093l0.092,-0.096l0.091,-0.096l0.089,-0.097l0.088,-0.098l0.087,-0.099l0.086,-0.101l0.085,-0.101l0.084,-0.103l0.082,-0.103l0.081,-0.105l0.08,-0.105l0.079,-0.107l0.077,-0.107l0.076,-0.108l0.075,-0.11l0.073,-0.11l0.073,-0.111l0.071,-0.112l0.069,-0.113l0.068,-0.114l0.067,-0.115l0.066,-0.115l0.064,-0.117l0.063,-0.117l0.061,-0.118l0.06,-0.119l0.059,-0.12l0.057,-0.12l0.056,-0.122l0.055,-0.122l0.052,-0.123l0.052,-0.123l0.05,-0.125l0.048,-0.125l0.047,-0.126l0.046,-0.126l0.044,-0.128l0.042,-0.128l0.041,-0.128l0.04,-0.13l0.038,-0.13l0.036,-0.131l0.035,-0.131l0.033,-0.132l0.031,-0.132l0.03,-0.134l0.028,-0.134l0.027,-0.134l0.025,-0.135l0.023,-0.136l0.022,-0.136l0.02,-0.136l0.018,-0.138l0.017,-0.138l0.015,-0.138l0.013,-0.139l0.012,-0.139l0.01,-0.14l0.008,-0.141l0.006,-0.14l0.004,-0.142l0.003,-0.142l0.001,-0.142l-0.001,-0.142l-0.003,-0.142l-0.004,-0.142l-0.006,-0.14l-0.008,-0.141l-0.01,-0.14l-0.012,-0.139l-0.013,-0.139l-0.015,-0.138l-0.017,-0.138l-0.018,-0.138l-0.02,-0.136l-0.022,-0.136l-0.023,-0.136l-0.025,-0.135l-0.027,-0.134l-0.028,-0.134l-0.03,-0.133l-0.031,-0.133l-0.033,-0.132l-0.035,-0.131l-0.036,-0.131l-0.038,-0.13l-0.04,-0.13l-0.041,-0.128l-0.042,-0.128l-0.044,-0.128l-0.046,-0.126l-0.047,-0.126l-0.048,-0.125l-0.05,-0.125l-0.052,-0.123l-0.052,-0.123l-0.055,-0.122l-0.056,-0.122l-0.057,-0.12l-0.059,-0.12l-0.06,-0.119l-0.061,-0.118l-0.063,-0.117l-0.064,-0.117l-0.066,-0.115l-0.067,-0.115l-0.068,-0.114l-0.069,-0.113l-0.071,-0.112l-0.073,-0.111l-0.073,-0.11l-0.075,-0.11l-0.076,-0.108l-0.077,-0.107l-0.079,-0.107l-0.08,-0.105l-0.081,-0.105l-0.082,-0.103l-0.084,-0.103l-0.085,-0.101l-0.086,-0.101l-0.087,-0.099l-0.088,-0.098l-0.089,-0.097l-0.091,-0.096l-0.092,-0.096l-0.092,-0.094l-0.094,-0.092l-0.096,-0.092l-0.096,-0.091l-0.097,-0.089l-0.098,-0.088l-0.099,-0.087l-0.101,-0.086l-0.101,-0.085l-0.103,-0.084l-0.103,-0.082l-0.105,-0.081l-0.105,-0.08l-0.107,-0.079l-0.107,-0.077l-0.108,-0.076l-0.11,-0.075l-0.11,-0.073l-0.111,-0.073l-0.112,-0.071l-0.113,-0.069l-0.114,-0.068l-0.115,-0.067l-0.115,-0.066l-0.117,-0.064l-0.117,-0.063l-0.118,-0.061l-0.119,-0.06l-0.12,-0.059l-0.12,-0.057l-0.122,-0.056l-0.122,-0.055l-0.123,-0.052l-0.123,-0.052l-0.125,-0.05l-0.125,-0.048l-0.126,-0.047l-0.126,-0.046l-0.128,-0.044l-0.128,-0.042l-0.128,-0.041l-0.13,-0.04l-0.13,-0.038l-0.131,-0.036l-0.131,-0.035l-0.132,-0.033l-0.133,-0.031l-0.133,-0.03l-0.134,-0.028l-0.134,-0.027l-0.135,-0.025l-0.136,-0.023l-0.136,-0.022l-0.136,-0.02l-0.138,-0.018l-0.138,-0.017l-0.138,-0.015l-0.139,-0.013l-0.139,-0.012l-0.14,-0.01l-0.141,-0.008l-0.14,-0.006l-0.142,-0.004l-0.142,-0.003l-0.142,-0.001l-0.142,0.001Z" style="fill:#0087be;"/><g><path d="M2,11.999c0,3.959 2.3,7.379 5.636,9l-4.771,-13.069c-0.555,1.243 -0.865,2.62 -0.865,4.069Z" style="fill:#0087be;fill-rule:nonzero;"/><path d="M18.751,11.495c0,-1.236 -0.444,-2.092 -0.825,-2.758c-0.507,-0.824 -0.982,-1.522 -0.982,-2.345c0,-0.92 0.697,-1.775 1.679,-1.775c0.044,0 0.086,0.005 0.13,0.008c-1.779,-1.63 -4.15,-2.625 -6.753,-2.625c-3.494,0 -6.568,1.792 -8.356,4.507c0.235,0.007 0.456,0.012 0.644,0.012c1.046,0 2.665,-0.127 2.665,-0.127c0.539,-0.032 0.603,0.76 0.064,0.824c0,0 -0.542,0.064 -1.144,0.095l3.641,10.832l2.189,-6.563l-1.558,-4.269c-0.539,-0.032 -1.049,-0.096 -1.049,-0.096c-0.539,-0.031 -0.476,-0.855 0.063,-0.823c0,0 1.652,0.127 2.634,0.127c1.046,0 2.665,-0.127 2.665,-0.127c0.54,-0.032 0.603,0.76 0.064,0.823c0,0 -0.542,0.064 -1.144,0.096l3.614,10.75l0.997,-3.334c0.433,-1.383 0.762,-2.376 0.762,-3.232Z" style="fill:#0087be;fill-rule:nonzero;"/><path d="M12.175,12.874l-3,8.719c0.896,0.263 1.843,0.407 2.825,0.407c1.164,0 2.281,-0.201 3.321,-0.567c-0.027,-0.043 -0.052,-0.088 -0.072,-0.138l-3.074,-8.421Z" style="fill:#0087be;fill-rule:nonzero;"/><path d="M20.774,7.202c0.043,0.318 0.068,0.66 0.068,1.028c0,1.015 -0.19,2.155 -0.761,3.582l-3.054,8.831c2.973,-1.733 4.973,-4.954 4.973,-8.643c0,-1.739 -0.444,-3.374 -1.226,-4.798Z" style="fill:#0087be;fill-rule:nonzero;"/></g></g></svg>