<?xml version="1.0" encoding="UTF-8" standalone="no"?><!DOCTYPE svg PUBLIC "-//W3C//DTD SVG 1.1//EN" "http://www.w3.org/Graphics/SVG/1.1/DTD/svg11.dtd"><svg width="100%" height="100%" viewBox="0 0 24 24" version="1.1" xmlns="http://www.w3.org/2000/svg" xmlns:xlink="http://www.w3.org/1999/xlink" xml:space="preserve" xmlns:serif="http://www.serif.com/" style="fill-rule:evenodd;clip-rule:evenodd;stroke-linejoin:round;stroke-miterlimit:1.41421;"><rect id="xd" x="0" y="0" width="24" height="24" style="fill:none;"/><clipPath id="_clip1"><rect id="xd1" serif:id="xd" x="0" y="0" width="24" height="24"/></clipPath><g clip-path="url(#_clip1)"><rect x="0" y="0" width="24" height="24" style="fill:#2d0020;"/><path d="M24,24l-24,0l0,-24l24,0l0,24Zm-22,-22l0,20l20,0l0,-20l-20,0Z" style="fill:#fa26c2;"/><path d="M10.506,16.312c-0.232,-0.472 -0.524,-0.992 -0.876,-1.56c-0.352,-0.568 -0.72,-1.116 -1.104,-1.644c-0.16,0.208 -0.334,0.456 -0.522,0.744c-0.188,0.288 -0.376,0.582 -0.564,0.882c-0.188,0.3 -0.362,0.59 -0.522,0.87c-0.16,0.28 -0.288,0.516 -0.384,0.708l-1.716,0c0.36,-0.68 0.776,-1.378 1.248,-2.094c0.472,-0.716 0.984,-1.466 1.536,-2.25l-2.664,-3.972l1.8,0l1.836,2.844l1.812,-2.844l1.728,0l-2.628,3.96c0.608,0.824 1.146,1.604 1.614,2.34c0.468,0.736 0.862,1.408 1.182,2.016l-1.776,0Z" style="fill:#fed9f3;fill-rule:nonzero;"/><path d="M14.334,13.156c0,0.64 0.152,1.142 0.456,1.506c0.304,0.364 0.724,0.546 1.26,0.546c0.232,0 0.43,-0.01 0.594,-0.03c0.164,-0.02 0.298,-0.042 0.402,-0.066l0,-3.6c-0.128,-0.088 -0.298,-0.17 -0.51,-0.246c-0.212,-0.076 -0.438,-0.114 -0.678,-0.114c-0.528,0 -0.914,0.18 -1.158,0.54c-0.244,0.36 -0.366,0.848 -0.366,1.464Zm4.164,2.964c-0.288,0.088 -0.65,0.168 -1.086,0.24c-0.436,0.072 -0.894,0.108 -1.374,0.108c-0.496,0 -0.94,-0.076 -1.332,-0.228c-0.392,-0.152 -0.726,-0.37 -1.002,-0.654c-0.276,-0.284 -0.488,-0.628 -0.636,-1.032c-0.148,-0.404 -0.222,-0.858 -0.222,-1.362c0,-0.496 0.062,-0.946 0.186,-1.35c0.124,-0.404 0.306,-0.75 0.546,-1.038c0.24,-0.288 0.532,-0.51 0.876,-0.666c0.344,-0.156 0.74,-0.234 1.188,-0.234c0.304,0 0.572,0.036 0.804,0.108c0.232,0.072 0.432,0.152 0.6,0.24l0,-3.012l1.452,-0.24l0,9.12Z" style="fill:#fed9f3;fill-rule:nonzero;"/></g></svg>