<?xml version="1.0" encoding="UTF-8" standalone="no"?><!DOCTYPE svg PUBLIC "-//W3C//DTD SVG 1.1//EN" "http://www.w3.org/Graphics/SVG/1.1/DTD/svg11.dtd"><svg width="100%" height="100%" viewBox="0 0 24 24" version="1.1" xmlns="http://www.w3.org/2000/svg" xmlns:xlink="http://www.w3.org/1999/xlink" xml:space="preserve" xmlns:serif="http://www.serif.com/" style="fill-rule:evenodd;clip-rule:evenodd;stroke-linejoin:round;stroke-miterlimit:1.41421;"><rect id="youtube" x="0" y="0" width="24" height="24" style="fill:none;"/><path d="M23.762,7.164c0,0 0.238,1.957 0.238,3.912l0,1.837c0,1.959 -0.238,3.916 -0.238,3.916c0,0 -0.24,1.665 -0.957,2.401c-0.906,0.962 -1.933,0.967 -2.405,1.023c-3.36,0.246 -8.401,0.254 -8.401,0.254c0,0 -6.24,-0.058 -8.16,-0.244c-0.534,-0.102 -1.734,-0.067 -2.647,-1.033c-0.717,-0.735 -0.952,-2.4 -0.952,-2.4c0,0 -0.24,-1.959 -0.24,-3.915l0,-1.838c0,-1.955 0.24,-3.913 0.24,-3.913c0,0 0.233,-1.669 0.952,-2.405c0.913,-0.959 1.937,-0.964 2.407,-1.024c3.357,-0.242 8.397,-0.242 8.397,-0.242l0.01,0c0,0 5.036,0 8.394,0.242c0.47,0.061 1.496,0.065 2.408,1.024c0.718,0.736 0.954,2.405 0.954,2.405l0,0Z" style="fill:#d33838;fill-rule:nonzero;"/><path d="M10,9l7,4l-7,3l0,-7Z" style="fill:#ae2626;"/><path d="M10,8l6,4l-6,4l0,-8Z" style="fill:#fff;"/></svg>